<svg width="19" height="19" viewBox="0 0 19 19" fill="none" xmlns="http://www.w3.org/2000/svg">
<path fill-rule="evenodd" clip-rule="evenodd" d="M18.1154 7.72844L10.6154 0.652188C10.6117 0.648989 10.6083 0.645543 10.6051 0.641875C10.0329 0.121501 9.15885 0.121501 8.58666 0.641875L8.57635 0.652188L1.08479 7.72844C0.775827 8.01254 0.600034 8.41309 0.600098 8.83281V17.5C0.600098 18.3284 1.27167 19 2.1001 19H6.6001C7.42852 19 8.1001 18.3284 8.1001 17.5V13H11.1001V17.5C11.1001 18.3284 11.7717 19 12.6001 19H17.1001C17.9285 19 18.6001 18.3284 18.6001 17.5V8.83281C18.6002 8.41309 18.4244 8.01254 18.1154 7.72844ZM17.1001 17.5H12.6001V13C12.6001 12.1716 11.9285 11.5 11.1001 11.5H8.1001C7.27167 11.5 6.6001 12.1716 6.6001 13V17.5H2.1001V8.83281L2.11041 8.82344L9.6001 1.75L17.0907 8.82156L17.101 8.83094L17.1001 17.5Z" fill="#4F6194"/>
</svg>
