<svg width="22" height="19" viewBox="0 0 22 19" fill="none" xmlns="http://www.w3.org/2000/svg">
<path fill-rule="evenodd" clip-rule="evenodd" d="M20.25 0.5H14.25C13.0697 0.5 11.9582 1.05573 11.25 2C10.5418 1.05573 9.43034 0.5 8.25 0.5H2.25C1.42157 0.5 0.75 1.17157 0.75 2V14C0.75 14.8284 1.42157 15.5 2.25 15.5H8.25C9.49264 15.5 10.5 16.5074 10.5 17.75C10.5 18.1642 10.8358 18.5 11.25 18.5C11.6642 18.5 12 18.1642 12 17.75C12 16.5074 13.0074 15.5 14.25 15.5H20.25C21.0784 15.5 21.75 14.8284 21.75 14V2C21.75 1.17157 21.0784 0.5 20.25 0.5ZM8.25 14H2.25V2H8.25C9.49264 2 10.5 3.00736 10.5 4.25V14.75C9.8515 14.262 9.0616 13.9987 8.25 14ZM20.25 14H14.25C13.4384 13.9987 12.6485 14.262 12 14.75V4.25C12 3.00736 13.0074 2 14.25 2H20.25V14Z" fill="#4F6194"/>
</svg>
