<svg width="25" height="16" viewBox="0 0 25 16" fill="none" xmlns="http://www.w3.org/2000/svg">
<path fill-rule="evenodd" clip-rule="evenodd" d="M11.7422 10.805C13.8061 9.43099 14.7269 6.86767 14.0092 4.49441C13.2914 2.12114 11.1044 0.497718 8.625 0.497718C6.14558 0.497718 3.95857 2.12114 3.24084 4.49441C2.5231 6.86767 3.44393 9.43099 5.50781 10.805C3.68952 11.4752 2.13666 12.7153 1.08094 14.3403C0.929932 14.5647 0.911484 14.8531 1.03266 15.095C1.15384 15.3368 1.39586 15.4947 1.66603 15.5081C1.93621 15.5215 2.19266 15.3884 2.33719 15.1597C3.72076 13.0317 6.08677 11.7479 8.625 11.7479C11.1632 11.7479 13.5292 13.0317 14.9128 15.1597C15.1417 15.4999 15.6014 15.5932 15.9448 15.3692C16.2882 15.1452 16.3881 14.6869 16.1691 14.3403C15.1133 12.7153 13.5605 11.4752 11.7422 10.805ZM4.5 6.125C4.5 3.84683 6.34683 2 8.625 2C10.9032 2 12.75 3.84683 12.75 6.125C12.75 8.40317 10.9032 10.25 8.625 10.25C6.3479 10.2474 4.50258 8.4021 4.5 6.125ZM24.2006 15.3781C23.8537 15.6043 23.3891 15.5066 23.1628 15.1597C21.7808 13.0303 19.4136 11.7466 16.875 11.75C16.4608 11.75 16.125 11.4142 16.125 11C16.125 10.5858 16.4608 10.25 16.875 10.25C18.5363 10.2484 20.0346 9.25041 20.6761 7.71798C21.3177 6.18554 20.9773 4.4178 19.8126 3.23312C18.648 2.04844 16.8863 1.67805 15.3431 2.29344C15.0927 2.40171 14.8031 2.36541 14.5872 2.19864C14.3712 2.03188 14.2628 1.76096 14.3042 1.49125C14.3456 1.22154 14.5302 0.995581 14.7863 0.90125C17.4609 -0.165433 20.5092 0.960007 21.849 3.50883C23.1888 6.05765 22.3874 9.2067 19.9922 10.805C21.8105 11.4752 23.3633 12.7153 24.4191 14.3403C24.6453 14.6872 24.5475 15.1518 24.2006 15.3781Z" fill="#4F6194"/>
</svg>
